<svg width="1200" height="760" viewBox="0 0 1200 760" fill="none" xmlns="http://www.w3.org/2000/svg" role="img" aria-labelledby="title desc">
  <title id="title">Airpeggio inbox reconstruction</title>
  <desc id="desc">Fleet-management inbox dashboard with purple navigation, request rows, and status tags.</desc>
  <rect width="1200" height="760" rx="28" fill="#f6f7fb"/>
  <rect x="0" y="0" width="1200" height="144" rx="28" fill="#4c0b5d"/>
  <rect x="0" y="116" width="1200" height="28" fill="#4c0b5d"/>
  <path d="M91 70c28-20 73-23 113-7l-38 6 44 40-24 7-51-40-36 8-8-14z" fill="#fff"/>
  <text x="210" y="92" fill="#fff" font-family="Inter, Arial, sans-serif" font-size="47" font-weight="800">airpeggio</text>
  <rect x="500" y="44" width="112" height="58" rx="12" fill="#3a0648"/>
  <path d="M531 61h31l-12 16v15l-8-4V77L531 61z" stroke="#fff" stroke-width="5" stroke-linejoin="round"/>
  <text x="572" y="83" fill="#fff" font-family="Inter, Arial, sans-serif" font-size="24" font-weight="750">Inbox</text>
  <text x="655" y="83" fill="#d8c7e0" font-family="Inter, Arial, sans-serif" font-size="24" font-weight="750">Customers</text>
  <text x="820" y="83" fill="#d8c7e0" font-family="Inter, Arial, sans-serif" font-size="24" font-weight="750">Aircraft</text>
  <text x="940" y="83" fill="#d8c7e0" font-family="Inter, Arial, sans-serif" font-size="24" font-weight="750">Reservations</text>
  <text x="80" y="238" fill="#0d1424" font-family="Inter, Arial, sans-serif" font-size="38" font-weight="850">Inbox</text>
  <rect x="80" y="300" width="180" height="58" rx="10" fill="#fff" stroke="#dce2ec" stroke-width="2"/>
  <text x="104" y="337" fill="#66738a" font-family="Inter, Arial, sans-serif" font-size="23" font-weight="700">Search</text>
  <rect x="280" y="300" width="120" height="58" rx="10" fill="#fff" stroke="#dce2ec" stroke-width="2"/>
  <text x="318" y="337" fill="#0d1424" font-family="Inter, Arial, sans-serif" font-size="23" font-weight="800">Filter</text>
  <rect x="788" y="242" width="164" height="64" rx="11" fill="#4c0b5d"/>
  <text x="821" y="282" fill="#fff" font-family="Inter, Arial, sans-serif" font-size="24" font-weight="850">Quick Quote</text>
  <rect x="964" y="242" width="174" height="64" rx="11" fill="#eef2f7"/>
  <text x="990" y="282" fill="#0d1424" font-family="Inter, Arial, sans-serif" font-size="22" font-weight="850">Manage Filters</text>
  <rect x="80" y="404" width="1060" height="274" rx="12" fill="#fff" stroke="#dce2ec" stroke-width="2"/>
  <rect x="80" y="404" width="1060" height="68" rx="12" fill="#f0f3f8"/>
  <rect x="80" y="458" width="1060" height="14" fill="#f0f3f8"/>
  <text x="110" y="448" fill="#657287" font-family="Inter, Arial, sans-serif" font-size="22" font-weight="850" letter-spacing="1.5">RECEIVED</text>
  <text x="284" y="448" fill="#657287" font-family="Inter, Arial, sans-serif" font-size="22" font-weight="850" letter-spacing="1.5">TYPE</text>
  <text x="410" y="448" fill="#657287" font-family="Inter, Arial, sans-serif" font-size="22" font-weight="850" letter-spacing="1.5">FROM</text>
  <text x="662" y="448" fill="#657287" font-family="Inter, Arial, sans-serif" font-size="22" font-weight="850" letter-spacing="1.5">ITINERARY</text>
  <text x="945" y="448" fill="#657287" font-family="Inter, Arial, sans-serif" font-size="22" font-weight="850" letter-spacing="1.5">STATUS</text>
  <path d="M80 544h1060M80 616h1060" stroke="#dce2ec" stroke-width="2"/>
  <text x="110" y="516" fill="#101828" font-family="Inter, Arial, sans-serif" font-size="22" font-weight="850">Apr 28, 2026</text>
  <text x="110" y="548" fill="#687386" font-family="Inter, Arial, sans-serif" font-size="20" font-weight="750">5:52 PM</text>
  <text x="284" y="532" fill="#101828" font-family="Inter, Arial, sans-serif" font-size="21" font-weight="850">Request</text>
  <text x="410" y="514" fill="#101828" font-family="Inter, Arial, sans-serif" font-size="22" font-weight="850">Diamond Santos</text>
  <text x="410" y="546" fill="#687386" font-family="Inter, Arial, sans-serif" font-size="20" font-weight="700">Go Fly House</text>
  <text x="662" y="514" fill="#101828" font-family="Inter, Arial, sans-serif" font-size="21" font-weight="850">KHOU - KBWI 05/01/26 | 8 pax</text>
  <text x="662" y="546" fill="#101828" font-family="Inter, Arial, sans-serif" font-size="21" font-weight="850">KBWI - KHOU 05/04/26 | 8 pax</text>
  <rect x="945" y="501" width="124" height="34" rx="7" fill="#f4fff8" stroke="#058a3c" stroke-width="2"/>
  <text x="965" y="524" fill="#058a3c" font-family="Inter, Arial, sans-serif" font-size="18" font-weight="900">QUALIFIED</text>
  <text x="110" y="588" fill="#101828" font-family="Inter, Arial, sans-serif" font-size="22" font-weight="850">Apr 28, 2026</text>
  <text x="284" y="604" fill="#101828" font-family="Inter, Arial, sans-serif" font-size="21" font-weight="850">Request</text>
  <text x="410" y="586" fill="#101828" font-family="Inter, Arial, sans-serif" font-size="22" font-weight="850">Tom Jenkins</text>
  <text x="662" y="586" fill="#101828" font-family="Inter, Arial, sans-serif" font-size="21" font-weight="850">KAUS - KASE 07/01/26 | 7 pax</text>
  <rect x="945" y="574" width="124" height="34" rx="7" fill="#f4fff8" stroke="#058a3c" stroke-width="2"/>
  <text x="965" y="597" fill="#058a3c" font-family="Inter, Arial, sans-serif" font-size="18" font-weight="900">QUALIFIED</text>
</svg>
